<svg aria-roledescription="flowchart-v2" role="graphics-document document" viewBox="0 0 2007.3671875 926" style="max-width: 2007.3671875px;" class="flowchart" xmlns="http://www.w3.org/2000/svg" width="100%" id="mermaid-inst-4aeqdgznw_diagram"><style>#mermaid-inst-4aeqdgznw_diagram{font-family:"trebuchet ms",verdana,arial,sans-serif;font-size:16px;fill:#ccc;}@keyframes edge-animation-frame{from{stroke-dashoffset:0;}}@keyframes dash{to{stroke-dashoffset:0;}}#mermaid-inst-4aeqdgznw_diagram .edge-animation-slow{stroke-dasharray:9,5!important;stroke-dashoffset:900;animation:dash 50s linear infinite;stroke-linecap:round;}#mermaid-inst-4aeqdgznw_diagram .edge-animation-fast{stroke-dasharray:9,5!important;stroke-dashoffset:900;animation:dash 20s linear infinite;stroke-linecap:round;}#mermaid-inst-4aeqdgznw_diagram .error-icon{fill:#a44141;}#mermaid-inst-4aeqdgznw_diagram .error-text{fill:#ddd;stroke:#ddd;}#mermaid-inst-4aeqdgznw_diagram .edge-thickness-normal{stroke-width:1px;}#mermaid-inst-4aeqdgznw_diagram .edge-thickness-thick{stroke-width:3.5px;}#mermaid-inst-4aeqdgznw_diagram .edge-pattern-solid{stroke-dasharray:0;}#mermaid-inst-4aeqdgznw_diagram .edge-thickness-invisible{stroke-width:0;fill:none;}#mermaid-inst-4aeqdgznw_diagram .edge-pattern-dashed{stroke-dasharray:3;}#mermaid-inst-4aeqdgznw_diagram .edge-pattern-dotted{stroke-dasharray:2;}#mermaid-inst-4aeqdgznw_diagram .marker{fill:lightgrey;stroke:lightgrey;}#mermaid-inst-4aeqdgznw_diagram .marker.cross{stroke:lightgrey;}#mermaid-inst-4aeqdgznw_diagram svg{font-family:"trebuchet ms",verdana,arial,sans-serif;font-size:16px;}#mermaid-inst-4aeqdgznw_diagram p{margin:0;}#mermaid-inst-4aeqdgznw_diagram .label{font-family:"trebuchet ms",verdana,arial,sans-serif;color:#ccc;}#mermaid-inst-4aeqdgznw_diagram .cluster-label text{fill:#F9FFFE;}#mermaid-inst-4aeqdgznw_diagram .cluster-label span{color:#F9FFFE;}#mermaid-inst-4aeqdgznw_diagram .cluster-label span p{background-color:transparent;}#mermaid-inst-4aeqdgznw_diagram .label text,#mermaid-inst-4aeqdgznw_diagram span{fill:#ccc;color:#ccc;}#mermaid-inst-4aeqdgznw_diagram .node rect,#mermaid-inst-4aeqdgznw_diagram .node circle,#mermaid-inst-4aeqdgznw_diagram .node ellipse,#mermaid-inst-4aeqdgznw_diagram .node polygon,#mermaid-inst-4aeqdgznw_diagram .node path{fill:#1f2020;stroke:#ccc;stroke-width:1px;}#mermaid-inst-4aeqdgznw_diagram .rough-node .label text,#mermaid-inst-4aeqdgznw_diagram .node .label text,#mermaid-inst-4aeqdgznw_diagram .image-shape .label,#mermaid-inst-4aeqdgznw_diagram .icon-shape .label{text-anchor:middle;}#mermaid-inst-4aeqdgznw_diagram .node .katex path{fill:#000;stroke:#000;stroke-width:1px;}#mermaid-inst-4aeqdgznw_diagram .rough-node .label,#mermaid-inst-4aeqdgznw_diagram .node .label,#mermaid-inst-4aeqdgznw_diagram .image-shape .label,#mermaid-inst-4aeqdgznw_diagram .icon-shape .label{text-align:center;}#mermaid-inst-4aeqdgznw_diagram .node.clickable{cursor:pointer;}#mermaid-inst-4aeqdgznw_diagram .root .anchor path{fill:lightgrey!important;stroke-width:0;stroke:lightgrey;}#mermaid-inst-4aeqdgznw_diagram .arrowheadPath{fill:lightgrey;}#mermaid-inst-4aeqdgznw_diagram .edgePath .path{stroke:lightgrey;stroke-width:2.0px;}#mermaid-inst-4aeqdgznw_diagram .flowchart-link{stroke:lightgrey;fill:none;}#mermaid-inst-4aeqdgznw_diagram .edgeLabel{background-color:hsl(0, 0%, 34.4117647059%);text-align:center;}#mermaid-inst-4aeqdgznw_diagram .edgeLabel p{background-color:hsl(0, 0%, 34.4117647059%);}#mermaid-inst-4aeqdgznw_diagram .edgeLabel rect{opacity:0.5;background-color:hsl(0, 0%, 34.4117647059%);fill:hsl(0, 0%, 34.4117647059%);}#mermaid-inst-4aeqdgznw_diagram .labelBkg{background-color:rgba(87.75, 87.75, 87.75, 0.5);}#mermaid-inst-4aeqdgznw_diagram .cluster rect{fill:hsl(180, 1.5873015873%, 28.3529411765%);stroke:rgba(255, 255, 255, 0.25);stroke-width:1px;}#mermaid-inst-4aeqdgznw_diagram .cluster text{fill:#F9FFFE;}#mermaid-inst-4aeqdgznw_diagram .cluster span{color:#F9FFFE;}#mermaid-inst-4aeqdgznw_diagram div.mermaidTooltip{position:absolute;text-align:center;max-width:200px;padding:2px;font-family:"trebuchet ms",verdana,arial,sans-serif;font-size:12px;background:hsl(20, 1.5873015873%, 12.3529411765%);border:1px solid rgba(255, 255, 255, 0.25);border-radius:2px;pointer-events:none;z-index:100;}#mermaid-inst-4aeqdgznw_diagram .flowchartTitleText{text-anchor:middle;font-size:18px;fill:#ccc;}#mermaid-inst-4aeqdgznw_diagram rect.text{fill:none;stroke-width:0;}#mermaid-inst-4aeqdgznw_diagram .icon-shape,#mermaid-inst-4aeqdgznw_diagram .image-shape{background-color:hsl(0, 0%, 34.4117647059%);text-align:center;}#mermaid-inst-4aeqdgznw_diagram .icon-shape p,#mermaid-inst-4aeqdgznw_diagram .image-shape p{background-color:hsl(0, 0%, 34.4117647059%);padding:2px;}#mermaid-inst-4aeqdgznw_diagram .icon-shape rect,#mermaid-inst-4aeqdgznw_diagram .image-shape rect{opacity:0.5;background-color:hsl(0, 0%, 34.4117647059%);fill:hsl(0, 0%, 34.4117647059%);}#mermaid-inst-4aeqdgznw_diagram :root{--mermaid-font-family:"trebuchet ms",verdana,arial,sans-serif;}</style><g><marker orient="auto" markerHeight="8" markerWidth="8" markerUnits="userSpaceOnUse" refY="5" refX="5" viewBox="0 0 10 10" class="marker flowchart-v2" id="mermaid-inst-4aeqdgznw_diagram_flowchart-v2-pointEnd"><path style="stroke-width: 1; stroke-dasharray: 1, 0;" class="arrowMarkerPath" d="M 0 0 L 10 5 L 0 10 z"></path></marker><marker orient="auto" markerHeight="8" markerWidth="8" markerUnits="userSpaceOnUse" refY="5" refX="4.5" viewBox="0 0 10 10" class="marker flowchart-v2" id="mermaid-inst-4aeqdgznw_diagram_flowchart-v2-pointStart"><path style="stroke-width: 1; stroke-dasharray: 1, 0;" class="arrowMarkerPath" d="M 0 5 L 10 10 L 10 0 z"></path></marker><marker orient="auto" markerHeight="11" markerWidth="11" markerUnits="userSpaceOnUse" refY="5" refX="11" viewBox="0 0 10 10" class="marker flowchart-v2" id="mermaid-inst-4aeqdgznw_diagram_flowchart-v2-circleEnd"><circle style="stroke-width: 1; stroke-dasharray: 1, 0;" class="arrowMarkerPath" r="5" cy="5" cx="5"></circle></marker><marker orient="auto" markerHeight="11" markerWidth="11" markerUnits="userSpaceOnUse" refY="5" refX="-1" viewBox="0 0 10 10" class="marker flowchart-v2" id="mermaid-inst-4aeqdgznw_diagram_flowchart-v2-circleStart"><circle style="stroke-width: 1; stroke-dasharray: 1, 0;" class="arrowMarkerPath" r="5" cy="5" cx="5"></circle></marker><marker orient="auto" markerHeight="11" markerWidth="11" markerUnits="userSpaceOnUse" refY="5.2" refX="12" viewBox="0 0 11 11" class="marker cross flowchart-v2" id="mermaid-inst-4aeqdgznw_diagram_flowchart-v2-crossEnd"><path style="stroke-width: 2; stroke-dasharray: 1, 0;" class="arrowMarkerPath" d="M 1,1 l 9,9 M 10,1 l -9,9"></path></marker><marker orient="auto" markerHeight="11" markerWidth="11" markerUnits="userSpaceOnUse" refY="5.2" refX="-1" viewBox="0 0 11 11" class="marker cross flowchart-v2" id="mermaid-inst-4aeqdgznw_diagram_flowchart-v2-crossStart"><path style="stroke-width: 2; stroke-dasharray: 1, 0;" class="arrowMarkerPath" d="M 1,1 l 9,9 M 10,1 l -9,9"></path></marker><g class="root"><g class="clusters"></g><g class="edgePaths"><path marker-end="url(#mermaid-inst-4aeqdgznw_diagram_flowchart-v2-pointEnd)" style="" class="edge-thickness-normal edge-pattern-solid edge-thickness-normal edge-pattern-solid flowchart-link" id="L_A0_A1_0" d="M1203.319,86L1212.067,92.167C1220.814,98.333,1238.309,110.667,1251.43,122.473C1264.551,134.28,1273.297,145.559,1277.67,151.199L1282.043,156.839"></path><path marker-end="url(#mermaid-inst-4aeqdgznw_diagram_flowchart-v2-pointEnd)" style="" class="edge-thickness-normal edge-pattern-solid edge-thickness-normal edge-pattern-solid flowchart-link" id="L_A0_A3_0" d="M1017.996,76.133L983.141,83.945C948.286,91.756,878.577,107.378,843.722,127.856C808.867,148.333,808.867,173.667,808.867,199C808.867,224.333,808.867,249.667,815.427,268.062C821.988,286.456,835.108,297.913,841.668,303.641L848.228,309.369"></path><path marker-end="url(#mermaid-inst-4aeqdgznw_diagram_flowchart-v2-pointEnd)" style="" class="edge-thickness-normal edge-pattern-solid edge-thickness-normal edge-pattern-solid flowchart-link" id="L_A0_A4_0" d="M1017.996,56.911L873.521,67.926C729.047,78.941,440.098,100.97,295.623,124.652C151.148,148.333,151.148,173.667,151.148,199C151.148,224.333,151.148,249.667,151.148,275C151.148,300.333,151.148,325.667,151.148,353C151.148,380.333,151.148,409.667,151.148,439C151.148,468.333,151.148,497.667,151.148,527C151.148,556.333,151.148,585.667,167.254,608.207C183.36,630.748,215.571,646.495,231.677,654.369L247.782,662.243"></path><path marker-end="url(#mermaid-inst-4aeqdgznw_diagram_flowchart-v2-pointEnd)" style="" class="edge-thickness-normal edge-pattern-solid edge-thickness-normal edge-pattern-solid flowchart-link" id="L_A0_A5_0" d="M1142.959,86L1142.162,92.167C1141.366,98.333,1139.773,110.667,1138.976,129.5C1138.18,148.333,1138.18,173.667,1138.18,199C1138.18,224.333,1138.18,249.667,1138.18,275C1138.18,300.333,1138.18,325.667,1138.18,353C1138.18,380.333,1138.18,409.667,1138.18,439C1138.18,468.333,1138.18,497.667,1138.18,527C1138.18,556.333,1138.18,585.667,1170.92,609.056C1203.661,632.445,1269.142,649.891,1301.883,658.613L1334.623,667.336"></path><path marker-end="url(#mermaid-inst-4aeqdgznw_diagram_flowchart-v2-pointEnd)" style="" class="edge-thickness-normal edge-pattern-solid edge-thickness-normal edge-pattern-solid flowchart-link" id="L_A0_A6_0" d="M1277.996,75.891L1313.325,83.743C1348.654,91.594,1419.311,107.297,1454.64,127.815C1489.969,148.333,1489.969,173.667,1489.969,199C1489.969,224.333,1489.969,249.667,1489.969,275C1489.969,300.333,1489.969,325.667,1489.969,353C1489.969,380.333,1489.969,409.667,1496.966,432.007C1503.964,454.348,1517.959,469.696,1524.956,477.37L1531.954,485.044"></path><path marker-end="url(#mermaid-inst-4aeqdgznw_diagram_flowchart-v2-pointEnd)" style="" class="edge-thickness-normal edge-pattern-solid edge-thickness-normal edge-pattern-solid flowchart-link" id="L_A0_A7_0" d="M1017.996,56.062L857.96,67.219C697.924,78.375,377.853,100.687,217.817,124.51C57.781,148.333,57.781,173.667,57.781,199C57.781,224.333,57.781,249.667,57.781,275C57.781,300.333,57.781,325.667,57.781,353C57.781,380.333,57.781,409.667,57.781,439C57.781,468.333,57.781,497.667,57.781,527C57.781,556.333,57.781,585.667,57.781,615C57.781,644.333,57.781,673.667,57.781,701C57.781,728.333,57.781,753.667,270.567,779.607C483.353,805.547,908.924,832.094,1121.71,845.368L1334.496,858.642"></path><path marker-end="url(#mermaid-inst-4aeqdgznw_diagram_flowchart-v2-pointEnd)" style="" class="edge-thickness-normal edge-pattern-solid edge-thickness-normal edge-pattern-solid flowchart-link" id="L_A1_A0_0" d="M1344.975,160L1349.756,153.833C1354.538,147.667,1364.101,135.333,1351.204,123.213C1338.306,111.092,1302.948,99.184,1285.269,93.231L1267.59,87.277"></path><path marker-end="url(#mermaid-inst-4aeqdgznw_diagram_flowchart-v2-pointEnd)" style="" class="edge-thickness-normal edge-pattern-solid edge-thickness-normal edge-pattern-solid flowchart-link" id="L_A1_A3_0" d="M1184.734,222.59L1136.596,231.325C1088.458,240.06,992.182,257.53,944.044,271.765C895.906,286,895.906,297,895.906,302.5L895.906,308"></path><path marker-end="url(#mermaid-inst-4aeqdgznw_diagram_flowchart-v2-pointEnd)" style="" class="edge-thickness-normal edge-pattern-solid edge-thickness-normal edge-pattern-solid flowchart-link" id="L_A2_A0_0" d="M723.352,488L723.352,479.833C723.352,471.667,723.352,455.333,723.352,432.5C723.352,409.667,723.352,380.333,723.352,353C723.352,325.667,723.352,300.333,723.352,275C723.352,249.667,723.352,224.333,723.352,199C723.352,173.667,723.352,148.333,771.803,126.995C820.254,105.657,917.156,88.314,965.607,79.643L1014.059,70.971"></path><path marker-end="url(#mermaid-inst-4aeqdgznw_diagram_flowchart-v2-pointEnd)" style="" class="edge-thickness-normal edge-pattern-solid edge-thickness-normal edge-pattern-solid flowchart-link" id="L_A2_A3_0" d="M799.825,488L815.838,479.833C831.852,471.667,863.879,455.333,879.893,439.667C895.906,424,895.906,409,895.906,401.5L895.906,394"></path><path marker-end="url(#mermaid-inst-4aeqdgznw_diagram_flowchart-v2-pointEnd)" style="" class="edge-thickness-normal edge-pattern-solid edge-thickness-normal edge-pattern-solid flowchart-link" id="L_A2_A4_0" d="M593.352,552.298L539.651,562.749C485.951,573.199,378.549,594.099,330.042,612.166C281.534,630.232,291.919,645.463,297.112,653.079L302.304,660.695"></path><path marker-end="url(#mermaid-inst-4aeqdgznw_diagram_flowchart-v2-pointEnd)" style="" class="edge-thickness-normal edge-pattern-solid edge-thickness-normal edge-pattern-solid flowchart-link" id="L_A2_A5_0" d="M853.352,546.562L929.152,557.969C1004.952,569.375,1156.552,592.187,1246.647,611.44C1336.743,630.692,1365.333,646.384,1379.629,654.23L1393.924,662.075"></path><path marker-end="url(#mermaid-inst-4aeqdgznw_diagram_flowchart-v2-pointEnd)" style="" class="edge-thickness-normal edge-pattern-solid edge-thickness-normal edge-pattern-solid flowchart-link" id="L_A3_A1_0" d="M975.269,312L987.818,305.833C1000.367,299.667,1025.465,287.333,1059.735,274.918C1094.005,262.502,1137.448,250.004,1159.169,243.755L1180.89,237.506"></path><path marker-end="url(#mermaid-inst-4aeqdgznw_diagram_flowchart-v2-pointEnd)" style="" class="edge-thickness-normal edge-pattern-solid edge-thickness-normal edge-pattern-solid flowchart-link" id="L_A3_A2_0" d="M767.979,390L741.191,398.167C714.403,406.333,660.826,422.667,644.281,438.597C627.737,454.528,648.223,470.056,658.466,477.82L668.71,485.584"></path><path marker-end="url(#mermaid-inst-4aeqdgznw_diagram_flowchart-v2-pointEnd)" style="" class="edge-thickness-normal edge-pattern-solid edge-thickness-normal edge-pattern-solid flowchart-link" id="L_A3_A6_0" d="M1025.906,367.966L1116.624,379.805C1207.341,391.644,1388.776,415.322,1479.493,434.661C1570.211,454,1570.211,469,1570.211,476.5L1570.211,484"></path><path marker-end="url(#mermaid-inst-4aeqdgznw_diagram_flowchart-v2-pointEnd)" style="" class="edge-thickness-normal edge-pattern-solid edge-thickness-normal edge-pattern-solid flowchart-link" id="L_A4_A1_0" d="M357.739,664L363.308,655.833C368.876,647.667,380.012,631.333,385.58,608.5C391.148,585.667,391.148,556.333,391.148,527C391.148,497.667,391.148,468.333,391.148,439C391.148,409.667,391.148,380.333,391.148,353C391.148,325.667,391.148,300.333,522.748,276.838C654.348,253.342,917.548,231.684,1049.148,220.855L1180.748,210.025"></path><path marker-end="url(#mermaid-inst-4aeqdgznw_diagram_flowchart-v2-pointEnd)" style="" class="edge-thickness-normal edge-pattern-solid edge-thickness-normal edge-pattern-solid flowchart-link" id="L_A4_A2_0" d="M461.148,673.831L504.849,664.026C548.549,654.221,635.951,634.61,679.651,617.305C723.352,600,723.352,585,723.352,577.5L723.352,570"></path><path marker-end="url(#mermaid-inst-4aeqdgznw_diagram_flowchart-v2-pointEnd)" style="" class="edge-thickness-normal edge-pattern-solid edge-thickness-normal edge-pattern-solid flowchart-link" id="L_A4_A7_0" d="M331.148,742L331.148,748.167C331.148,754.333,331.148,766.667,498.374,785.772C665.599,804.878,1000.05,830.755,1167.275,843.694L1334.5,856.633"></path><path marker-end="url(#mermaid-inst-4aeqdgznw_diagram_flowchart-v2-pointEnd)" style="" class="edge-thickness-normal edge-pattern-solid edge-thickness-normal edge-pattern-solid flowchart-link" id="L_A5_A1_0" d="M1593.723,664L1619.948,655.833C1646.172,647.667,1698.621,631.333,1724.846,608.5C1751.07,585.667,1751.07,556.333,1751.07,527C1751.07,497.667,1751.07,468.333,1751.07,439C1751.07,409.667,1751.07,380.333,1751.07,353C1751.07,325.667,1751.07,300.333,1700.671,278.888C1650.272,257.443,1549.473,239.886,1499.074,231.108L1448.675,222.329"></path><path marker-end="url(#mermaid-inst-4aeqdgznw_diagram_flowchart-v2-pointEnd)" style="" class="edge-thickness-normal edge-pattern-solid edge-thickness-normal edge-pattern-solid flowchart-link" id="L_A5_A7_0" d="M1468.488,742L1468.488,748.167C1468.488,754.333,1468.488,766.667,1468.488,778.333C1468.488,790,1468.488,801,1468.488,806.5L1468.488,812"></path><path marker-end="url(#mermaid-inst-4aeqdgznw_diagram_flowchart-v2-pointEnd)" style="" class="edge-thickness-normal edge-pattern-solid edge-thickness-normal edge-pattern-solid flowchart-link" id="L_A6_A1_0" d="M1605.773,488L1613.22,479.833C1620.666,471.667,1635.56,455.333,1643.006,432.5C1650.453,409.667,1650.453,380.333,1650.453,353C1650.453,325.667,1650.453,300.333,1616.817,280.052C1583.181,259.771,1515.908,244.542,1482.272,236.927L1448.636,229.313"></path><path marker-end="url(#mermaid-inst-4aeqdgznw_diagram_flowchart-v2-pointEnd)" style="" class="edge-thickness-normal edge-pattern-solid edge-thickness-normal edge-pattern-solid flowchart-link" id="L_A6_A5_0" d="M1570.211,566L1570.211,574.167C1570.211,582.333,1570.211,598.667,1561.275,614.564C1552.339,630.461,1534.467,645.922,1525.531,653.652L1516.595,661.383"></path><path marker-end="url(#mermaid-inst-4aeqdgznw_diagram_flowchart-v2-pointEnd)" style="" class="edge-thickness-normal edge-pattern-solid edge-thickness-normal edge-pattern-solid flowchart-link" id="L_A7_A1_0" d="M1598.488,837.249L1640.908,827.54C1683.328,817.832,1768.168,798.416,1810.588,776.041C1853.008,753.667,1853.008,728.333,1853.008,701C1853.008,673.667,1853.008,644.333,1853.008,615C1853.008,585.667,1853.008,556.333,1853.008,527C1853.008,497.667,1853.008,468.333,1853.008,439C1853.008,409.667,1853.008,380.333,1853.008,353C1853.008,325.667,1853.008,300.333,1785.622,278.152C1718.237,255.971,1583.466,236.943,1516.081,227.429L1448.695,217.914"></path><path marker-end="url(#mermaid-inst-4aeqdgznw_diagram_flowchart-v2-pointEnd)" style="" class="edge-thickness-normal edge-pattern-solid edge-thickness-normal edge-pattern-solid flowchart-link" id="L_A7_A0_0" d="M1598.488,842.54L1654.771,831.95C1711.055,821.36,1823.621,800.18,1879.904,776.923C1936.188,753.667,1936.188,728.333,1936.188,701C1936.188,673.667,1936.188,644.333,1936.188,615C1936.188,585.667,1936.188,556.333,1936.188,527C1936.188,497.667,1936.188,468.333,1936.188,439C1936.188,409.667,1936.188,380.333,1936.188,353C1936.188,325.667,1936.188,300.333,1936.188,275C1936.188,249.667,1936.188,224.333,1936.188,199C1936.188,173.667,1936.188,148.333,1827.153,125.153C1718.118,101.973,1500.048,80.946,1391.013,70.432L1281.978,59.919"></path></g><g class="edgeLabels"><g transform="translate(1255.8046875, 123)" class="edgeLabel"><g transform="translate(-50.25, -12)" class="label"><foreignObject height="24" width="100.5"><div style="display: table-cell; white-space: nowrap; line-height: 1.5; max-width: 200px; text-align: center;" class="labelBkg" xmlns="http://www.w3.org/1999/xhtml"><span class="edgeLabel"><p>Updates State</p></span></div></foreignObject></g></g><g transform="translate(808.8671875, 199)" class="edgeLabel"><g transform="translate(-65.515625, -12)" class="label"><foreignObject height="24" width="131.03125"><div style="display: table-cell; white-space: nowrap; line-height: 1.5; max-width: 200px; text-align: center;" class="labelBkg" xmlns="http://www.w3.org/1999/xhtml"><span class="edgeLabel"><p>Triggers RFID Flow</p></span></div></foreignObject></g></g><g transform="translate(151.1484375, 351)" class="edgeLabel"><g transform="translate(-73.3671875, -12)" class="label"><foreignObject height="24" width="146.734375"><div style="display: table-cell; white-space: nowrap; line-height: 1.5; max-width: 200px; text-align: center;" class="labelBkg" xmlns="http://www.w3.org/1999/xhtml"><span class="edgeLabel"><p>Initiates Reservation</p></span></div></foreignObject></g></g><g transform="translate(1138.1796875, 351)" class="edgeLabel"><g transform="translate(-77.2734375, -12)" class="label"><foreignObject height="24" width="154.546875"><div style="display: table-cell; white-space: nowrap; line-height: 1.5; max-width: 200px; text-align: center;" class="labelBkg" xmlns="http://www.w3.org/1999/xhtml"><span class="edgeLabel"><p>Submits Contact Data</p></span></div></foreignObject></g></g><g transform="translate(1489.96875, 275)" class="edgeLabel"><g transform="translate(-58.796875, -12)" class="label"><foreignObject height="24" width="117.59375"><div style="display: table-cell; white-space: nowrap; line-height: 1.5; max-width: 200px; text-align: center;" class="labelBkg" xmlns="http://www.w3.org/1999/xhtml"><span class="edgeLabel"><p>Captures Images</p></span></div></foreignObject></g></g><g transform="translate(57.78125, 439)" class="edgeLabel"><g transform="translate(-49.78125, -12)" class="label"><foreignObject height="24" width="99.5625"><div style="display: table-cell; white-space: nowrap; line-height: 1.5; max-width: 200px; text-align: center;" class="labelBkg" xmlns="http://www.w3.org/1999/xhtml"><span class="edgeLabel"><p>Triggers Reset</p></span></div></foreignObject></g></g><g transform="translate(1373.6640625, 123)" class="edgeLabel"><g transform="translate(-47.609375, -12)" class="label"><foreignObject height="24" width="95.21875"><div style="display: table-cell; white-space: nowrap; line-height: 1.5; max-width: 200px; text-align: center;" class="labelBkg" xmlns="http://www.w3.org/1999/xhtml"><span class="edgeLabel"><p>Configures UI</p></span></div></foreignObject></g></g><g transform="translate(895.90625, 275)" class="edgeLabel"><g transform="translate(-67.0390625, -12)" class="label"><foreignObject height="24" width="134.078125"><div style="display: table-cell; white-space: nowrap; line-height: 1.5; max-width: 200px; text-align: center;" class="labelBkg" xmlns="http://www.w3.org/1999/xhtml"><span class="edgeLabel"><p>Provides RFID Data</p></span></div></foreignObject></g></g><g transform="translate(723.3515625, 275)" class="edgeLabel"><g transform="translate(-44.3671875, -12)" class="label"><foreignObject height="24" width="88.734375"><div style="display: table-cell; white-space: nowrap; line-height: 1.5; max-width: 200px; text-align: center;" class="labelBkg" xmlns="http://www.w3.org/1999/xhtml"><span class="edgeLabel"><p>Populates UI</p></span></div></foreignObject></g></g><g transform="translate(895.90625, 439)" class="edgeLabel"><g transform="translate(-100, -24)" class="label"><foreignObject height="48" width="200"><div style="display: table; white-space: break-spaces; line-height: 1.5; max-width: 200px; text-align: center; width: 200px;" class="labelBkg" xmlns="http://www.w3.org/1999/xhtml"><span class="edgeLabel"><p>Provides Key/Contact/Visit ...</p></span></div></foreignObject></g></g><g transform="translate(271.1484375, 615)" class="edgeLabel"><g transform="translate(-100, -24)" class="label"><foreignObject height="48" width="200"><div style="display: table; white-space: break-spaces; line-height: 1.5; max-width: 200px; text-align: center; width: 200px;" class="labelBkg" xmlns="http://www.w3.org/1999/xhtml"><span class="edgeLabel"><p>Provides Spaces/Reservations</p></span></div></foreignObject></g></g><g transform="translate(1308.15234375, 615)" class="edgeLabel"><g transform="translate(-92.6796875, -12)" class="label"><foreignObject height="24" width="185.359375"><div style="display: table-cell; white-space: nowrap; line-height: 1.5; max-width: 200px; text-align: center;" class="labelBkg" xmlns="http://www.w3.org/1999/xhtml"><span class="edgeLabel"><p>Receives Contact Updates</p></span></div></foreignObject></g></g><g transform="translate(1050.5625, 275)" class="edgeLabel"><g transform="translate(-66.2578125, -12)" class="label"><foreignObject height="24" width="132.515625"><div style="display: table-cell; white-space: nowrap; line-height: 1.5; max-width: 200px; text-align: center;" class="labelBkg" xmlns="http://www.w3.org/1999/xhtml"><span class="edgeLabel"><p>Stores Visitor Data</p></span></div></foreignObject></g></g><g transform="translate(607.25, 439)" class="edgeLabel"><g transform="translate(-96.1015625, -12)" class="label"><foreignObject height="24" width="192.203125"><div style="display: table-cell; white-space: nowrap; line-height: 1.5; max-width: 200px; text-align: center;" class="labelBkg" xmlns="http://www.w3.org/1999/xhtml"><span class="edgeLabel"><p>Executes Key/Visit Queries</p></span></div></foreignObject></g></g><g transform="translate(1570.2109375, 439)" class="edgeLabel"><g transform="translate(-60.2421875, -12)" class="label"><foreignObject height="24" width="120.484375"><div style="display: table-cell; white-space: nowrap; line-height: 1.5; max-width: 200px; text-align: center;" class="labelBkg" xmlns="http://www.w3.org/1999/xhtml"><span class="edgeLabel"><p>Retrieves Images</p></span></div></foreignObject></g></g><g transform="translate(391.1484375, 439)" class="edgeLabel"><g transform="translate(-100, -24)" class="label"><foreignObject height="48" width="200"><div style="display: table; white-space: break-spaces; line-height: 1.5; max-width: 200px; text-align: center; width: 200px;" class="labelBkg" xmlns="http://www.w3.org/1999/xhtml"><span class="edgeLabel"><p>Updates Reservation Details</p></span></div></foreignObject></g></g><g transform="translate(723.3515625, 615)" class="edgeLabel"><g transform="translate(-74.0625, -12)" class="label"><foreignObject height="24" width="148.125"><div style="display: table-cell; white-space: nowrap; line-height: 1.5; max-width: 200px; text-align: center;" class="labelBkg" xmlns="http://www.w3.org/1999/xhtml"><span class="edgeLabel"><p>Upserts Reservations</p></span></div></foreignObject></g></g><g transform="translate(331.1484375, 779)" class="edgeLabel"><g transform="translate(-72.6484375, -12)" class="label"><foreignObject height="24" width="145.296875"><div style="display: table-cell; white-space: nowrap; line-height: 1.5; max-width: 200px; text-align: center;" class="labelBkg" xmlns="http://www.w3.org/1999/xhtml"><span class="edgeLabel"><p>Triggers App Refresh</p></span></div></foreignObject></g></g><g transform="translate(1751.0703125, 439)" class="edgeLabel"><g transform="translate(-80.6171875, -12)" class="label"><foreignObject height="24" width="161.234375"><div style="display: table-cell; white-space: nowrap; line-height: 1.5; max-width: 200px; text-align: center;" class="labelBkg" xmlns="http://www.w3.org/1999/xhtml"><span class="edgeLabel"><p>Updates Contact State</p></span></div></foreignObject></g></g><g transform="translate(1468.48828125, 779)" class="edgeLabel"><g transform="translate(-60.6796875, -12)" class="label"><foreignObject height="24" width="121.359375"><div style="display: table-cell; white-space: nowrap; line-height: 1.5; max-width: 200px; text-align: center;" class="labelBkg" xmlns="http://www.w3.org/1999/xhtml"><span class="edgeLabel"><p>Requests Refresh</p></span></div></foreignObject></g></g><g transform="translate(1650.453125, 351)" class="edgeLabel"><g transform="translate(-65.4296875, -12)" class="label"><foreignObject height="24" width="130.859375"><div style="display: table-cell; white-space: nowrap; line-height: 1.5; max-width: 200px; text-align: center;" class="labelBkg" xmlns="http://www.w3.org/1999/xhtml"><span class="edgeLabel"><p>Stores Image URLs</p></span></div></foreignObject></g></g><g transform="translate(1570.2109375, 615)" class="edgeLabel"><g transform="translate(-90.765625, -12)" class="label"><foreignObject height="24" width="181.53125"><div style="display: table-cell; white-space: nowrap; line-height: 1.5; max-width: 200px; text-align: center;" class="labelBkg" xmlns="http://www.w3.org/1999/xhtml"><span class="edgeLabel"><p>Notifies Contact Updated</p></span></div></foreignObject></g></g><g transform="translate(1853.0078125, 527)" class="edgeLabel"><g transform="translate(-43.875, -12)" class="label"><foreignObject height="24" width="87.75"><div style="display: table-cell; white-space: nowrap; line-height: 1.5; max-width: 200px; text-align: center;" class="labelBkg" xmlns="http://www.w3.org/1999/xhtml"><span class="edgeLabel"><p>Resets State</p></span></div></foreignObject></g></g><g transform="translate(1936.1875, 439)" class="edgeLabel"><g transform="translate(-63.1796875, -12)" class="label"><foreignObject height="24" width="126.359375"><div style="display: table-cell; white-space: nowrap; line-height: 1.5; max-width: 200px; text-align: center;" class="labelBkg" xmlns="http://www.w3.org/1999/xhtml"><span class="edgeLabel"><p>Resets UI Widgets</p></span></div></foreignObject></g></g></g><g class="nodes"><g transform="translate(1147.99609375, 47)" id="flowchart-A0-0" class="node default"><rect height="78" width="260" y="-39" x="-130" style="" class="basic label-container"></rect><g transform="translate(-100, -24)" style="" class="label"><rect></rect><foreignObject height="48" width="200"><div style="display: table; white-space: break-spaces; line-height: 1.5; max-width: 200px; text-align: center; width: 200px;" xmlns="http://www.w3.org/1999/xhtml"><span class="nodeLabel"><p>UI Component Layer (Widgets)</p></span></div></foreignObject></g></g><g transform="translate(1314.734375, 199)" id="flowchart-A1-1" class="node default"><rect height="78" width="260" y="-39" x="-130" style="" class="basic label-container"></rect><g transform="translate(-100, -24)" style="" class="label"><rect></rect><foreignObject height="48" width="200"><div style="display: table; white-space: break-spaces; line-height: 1.5; max-width: 200px; text-align: center; width: 200px;" xmlns="http://www.w3.org/1999/xhtml"><span class="nodeLabel"><p>Global Application State (Appsmith Store)</p></span></div></foreignObject></g></g><g transform="translate(723.3515625, 527)" id="flowchart-A2-2" class="node default"><rect height="78" width="260" y="-39" x="-130" style="" class="basic label-container"></rect><g transform="translate(-100, -24)" style="" class="label"><rect></rect><foreignObject height="48" width="200"><div style="display: table; white-space: break-spaces; line-height: 1.5; max-width: 200px; text-align: center; width: 200px;" xmlns="http://www.w3.org/1999/xhtml"><span class="nodeLabel"><p>Database Interaction (SQL Queries)</p></span></div></foreignObject></g></g><g transform="translate(895.90625, 351)" id="flowchart-A3-3" class="node default"><rect height="78" width="260" y="-39" x="-130" style="" class="basic label-container"></rect><g transform="translate(-100, -24)" style="" class="label"><rect></rect><foreignObject height="48" width="200"><div style="display: table; white-space: break-spaces; line-height: 1.5; max-width: 200px; text-align: center; width: 200px;" xmlns="http://www.w3.org/1999/xhtml"><span class="nodeLabel"><p>RFID and Visitor Flow Management (js_utils_rfid)</p></span></div></foreignObject></g></g><g transform="translate(331.1484375, 703)" id="flowchart-A4-4" class="node default"><rect height="78" width="260" y="-39" x="-130" style="" class="basic label-container"></rect><g transform="translate(-100, -24)" style="" class="label"><rect></rect><foreignObject height="48" width="200"><div style="display: table; white-space: break-spaces; line-height: 1.5; max-width: 200px; text-align: center; width: 200px;" xmlns="http://www.w3.org/1999/xhtml"><span class="nodeLabel"><p>Reservation Booking Logic (js_utils_reservation)</p></span></div></foreignObject></g></g><g transform="translate(1468.48828125, 703)" id="flowchart-A5-5" class="node default"><rect height="78" width="260" y="-39" x="-130" style="" class="basic label-container"></rect><g transform="translate(-100, -24)" style="" class="label"><rect></rect><foreignObject height="48" width="200"><div style="display: table; white-space: break-spaces; line-height: 1.5; max-width: 200px; text-align: center; width: 200px;" xmlns="http://www.w3.org/1999/xhtml"><span class="nodeLabel"><p>Contact Data Management (js_utils_contact)</p></span></div></foreignObject></g></g><g transform="translate(1570.2109375, 527)" id="flowchart-A6-6" class="node default"><rect height="78" width="260" y="-39" x="-130" style="" class="basic label-container"></rect><g transform="translate(-100, -24)" style="" class="label"><rect></rect><foreignObject height="48" width="200"><div style="display: table; white-space: break-spaces; line-height: 1.5; max-width: 200px; text-align: center; width: 200px;" xmlns="http://www.w3.org/1999/xhtml"><span class="nodeLabel"><p>Image Upload and Retrieval (js_utils_image)</p></span></div></foreignObject></g></g><g transform="translate(1468.48828125, 867)" id="flowchart-A7-7" class="node default"><rect height="102" width="260" y="-51" x="-130" style="" class="basic label-container"></rect><g transform="translate(-100, -36)" style="" class="label"><rect></rect><foreignObject height="72" width="200"><div style="display: table; white-space: break-spaces; line-height: 1.5; max-width: 200px; text-align: center; width: 200px;" xmlns="http://www.w3.org/1999/xhtml"><span class="nodeLabel"><p>Application Reset and Initialization (js_utils_reset)</p></span></div></foreignObject></g></g></g></g></g></svg>